<svg width="30" height="30" viewBox="0 0 30 30" fill="none" xmlns="http://www.w3.org/2000/svg">
<path d="M3.75 27.1874C3.62662 27.1881 3.50431 27.1645 3.39009 27.1178C3.27587 27.0712 3.17198 27.0024 3.08438 26.9156C2.99651 26.8284 2.92676 26.7247 2.87917 26.6105C2.83157 26.4962 2.80707 26.3737 2.80707 26.2499C2.80707 26.1262 2.83157 26.0036 2.87917 25.8894C2.92676 25.7751 2.99651 25.6715 3.08438 25.5843L25.5844 3.0843C25.7609 2.90777 26.0003 2.80859 26.25 2.80859C26.4997 2.80859 26.7391 2.90777 26.9156 3.0843C27.0922 3.26084 27.1913 3.50027 27.1913 3.74993C27.1913 3.99959 27.0922 4.23902 26.9156 4.41555L4.41563 26.9156C4.32803 27.0024 4.22414 27.0712 4.10992 27.1178C3.99569 27.1645 3.87339 27.1881 3.75 27.1874Z"/>
<path d="M26.2501 27.1874C26.1267 27.1881 26.0044 27.1645 25.8902 27.1178C25.776 27.0712 25.6721 27.0024 25.5845 26.9156L3.08449 4.41555C2.90795 4.23902 2.80878 3.99959 2.80878 3.74993C2.80878 3.50027 2.90795 3.26084 3.08449 3.0843C3.26102 2.90777 3.50045 2.80859 3.75011 2.80859C3.99977 2.80859 4.2392 2.90777 4.41574 3.0843L26.9157 25.5843C27.0036 25.6715 27.0734 25.7751 27.1209 25.8894C27.1685 26.0036 27.193 26.1262 27.193 26.2499C27.193 26.3737 27.1685 26.4962 27.1209 26.6105C27.0734 26.7247 27.0036 26.8284 26.9157 26.9156C26.8281 27.0024 26.7242 27.0712 26.61 27.1178C26.4958 27.1645 26.3735 27.1881 26.2501 27.1874Z"/>
</svg>
