<svg width="30" height="30" viewBox="0 0 30 30" fill="none" xmlns="http://www.w3.org/2000/svg">
<path d="M13 17L14.3125 13.0625L23.75 3.625L26.375 6.25L16.9375 15.6875L13 17ZM15.4375 13.6875L15 15L16.3125 14.5625L24.625 6.25L23.75 5.375L15.4375 13.6875Z"/>
<path d="M26.8125 5.8125L24.1875 3.1875L25.0625 2.3125C25.8125 1.5625 26.9375 1.5625 27.6875 2.3125C28.0625 2.6875 28.25 3.125 28.25 3.625C28.25 4.125 28.0625 4.5625 27.6875 4.9375L26.8125 5.8125ZM25.9375 3.1875L26.8125 4.0625C26.9375 3.9375 27 3.8125 27 3.625C27 3.4375 26.9375 3.3125 26.8125 3.1875C26.5625 2.9375 26.1875 2.9375 25.9375 3.1875Z" />
<path d="M23.75 28.75H3.125C2.0625 28.75 1.25 27.9375 1.25 26.875V6.25C1.25 5.1875 2.0625 4.375 3.125 4.375H20V5.625H3.125C2.75 5.625 2.5 5.875 2.5 6.25V26.875C2.5 27.25 2.75 27.5 3.125 27.5H23.75C24.125 27.5 24.375 27.25 24.375 26.875V10H25.625V26.875C25.625 27.9375 24.8125 28.75 23.75 28.75Z" />
</svg>
